<svg width="428" height="165" viewBox="0 0 428 165" fill="none" xmlns="http://www.w3.org/2000/svg">
<path d="M328.881 112.202L330.939 125.878L336.52 140.597L307.23 129.439L305.172 115.764L315.998 107.145L328.881 112.202Z" fill="#0F4D8A"/>
<path fill-rule="evenodd" clip-rule="evenodd" d="M368.26 19.2482C261.344 -4.35119 111.324 -8.53368 46.0021 19.6166C45.2443 19.9212 44.4925 20.2377 43.7471 20.5659L47.0976 32.2776L33.5541 46.2688L15.7618 41.8241C9.01881 50.0412 3.97928 59.7072 1.18222 70.2837L11.4004 74.9352L13.2918 94.5563L0.0566406 103.99C2.10433 114.576 6.3681 124.372 12.3464 132.878L42.1325 124.478L64.7405 146.468L60.3638 163.744C64.8345 164.569 69.4434 165 74.1531 165C88.7786 165 102.432 160.843 113.996 153.648C112.783 150.206 112.139 146.029 112.139 140.963C112.139 139.44 112.197 137.975 112.311 136.566L108.266 129.566L136.831 80.1349L166.07 80.1345L215.358 108.636L264.77 80.2112L293.68 80.2116L318.742 123.581L317.252 126.159C327.944 137.955 343.008 145.722 359.89 146.905L359.024 124.667L392.6 103.499L418.423 117.075C424.494 107.338 428.001 95.8406 428.001 83.5246C428.001 66.9855 421.676 51.9224 411.311 40.6179L389.859 50.9965L367.073 35.5471L368.26 19.2482ZM97.3035 58.7256L110.009 74.9685L73.3404 115.576L36.6722 74.9685L49.3774 58.7256L97.3035 58.7256ZM363.822 70.1936L354.851 58.7256L321.014 58.7256L312.044 70.1936L337.933 98.8636L363.822 70.1936ZM214.999 28.4238C214.376 28.4238 213.773 28.3345 213.203 28.1678L193.724 62.3498C194.158 62.7691 194.541 63.257 194.858 63.8091C195.171 64.3617 195.396 64.9412 195.538 65.5309H234.464C234.605 64.9409 234.83 64.3613 235.143 63.8091C235.458 63.2539 235.842 62.7637 236.277 62.3429L216.801 28.1662C216.23 28.3339 215.625 28.4238 214.999 28.4238ZM210.544 26.6177C210.482 26.5575 210.421 26.496 210.361 26.4333L195.45 35.156C195.914 36.7989 195.746 38.6217 194.839 40.2195C193.931 41.8195 192.453 42.8801 190.811 43.2937V60.732C190.896 60.7533 190.981 60.7762 191.065 60.8009L210.544 26.6177ZM221.449 21.8896C221.449 22.5387 221.356 23.1655 221.182 23.757L236.064 32.462C236.483 32.0125 236.972 31.6156 237.527 31.2889C240.613 29.4916 244.549 30.5587 246.342 33.6854C248.116 36.812 247.062 40.7999 243.976 42.616C243.425 42.937 242.846 43.1667 242.257 43.3095V60.7237C242.84 60.8668 243.412 61.095 243.958 61.4126C247.062 63.2287 248.116 67.2166 246.323 70.3433C244.549 73.4699 240.595 74.5371 237.509 72.7397C236.895 72.3821 236.361 71.9371 235.914 71.4289L221.123 80.081C221.335 80.7278 221.449 81.4196 221.449 82.1389C221.449 85.7336 218.566 88.673 214.999 88.673C211.433 88.673 208.55 85.7523 208.55 82.1389C208.55 81.496 208.641 80.8751 208.812 80.2886L193.936 71.5871C193.522 72.0282 193.039 72.4181 192.492 72.7397C189.388 74.5371 185.452 73.4699 183.678 70.3433C181.904 67.2166 182.957 63.2287 186.043 61.4126C186.589 61.0947 187.161 60.8664 187.744 60.7233V43.3095C187.155 43.1667 186.576 42.937 186.024 42.616C182.938 40.8186 181.885 36.812 183.659 33.6854C185.433 30.5587 189.388 29.4916 192.474 31.2889C193.026 31.614 193.513 32.0087 193.931 32.4556L208.814 23.7495C208.642 23.1602 208.55 22.536 208.55 21.8896C208.55 18.2762 211.433 15.3555 214.999 15.3555C218.566 15.3555 221.449 18.2762 221.449 21.8896ZM219.632 26.4389C219.576 26.4983 219.518 26.5566 219.459 26.6137L238.939 60.798C239.022 60.7738 239.106 60.7512 239.19 60.7303V43.2937C237.548 42.8801 236.07 41.8195 235.162 40.2195C234.257 38.6244 234.088 36.8052 234.549 35.1645L219.632 26.4389ZM219.77 77.7381C218.591 76.4267 216.891 75.6048 214.999 75.6048C213.174 75.6048 211.527 76.3703 210.354 77.6024L195.463 68.8914C195.487 68.8077 195.509 68.7235 195.53 68.6388H234.469C234.505 68.7837 234.544 68.9273 234.589 69.0694L219.77 77.7381Z" fill="#0F4D8A"/>
<path d="M105.361 125.798L119.311 134.881L118.412 151.494L103.563 159.023L89.6125 149.939L90.5115 133.327L105.361 125.798Z" fill="#0F4D8A"/>
</svg>
